HIERARCHY
ROOT Hips
{
	OFFSET 0.00000 0.00000 0.00000
	CHANNELS 6 Xposition Yposition Zposition Yrotation Zrotation Xrotation 
	JOINT Lumbar
	{
		OFFSET 0 0 0
		CHANNELS 3 Zrotation Xrotation Yrotation
		JOINT Neck
		{
			OFFSET 0.00 0.2701 0.00
			CHANNELS 3 Zrotation Xrotation Yrotation
			End Site
			{
				OFFSET 0.00 0.1379 0.00
			}
		}
		JOINT RightShoulder
		{
			OFFSET 0.0119 0.2289 0.1181
			CHANNELS 3 Zrotation Xrotation Yrotation
			JOINT RightElbow
			{
				OFFSET 0.00 -0.1475 0.00
				CHANNELS 2 Zrotation Yrotation
				JOINT RightWrist
				{
					OFFSET 0.00 -0.1605 0.00
					CHANNELS 2 Zrotation Xrotation
					End Site
					{
						OFFSET 0.0040 -0.1068 0.0006
					}
				}
			}
		}
		JOINT LeftShoulder
		{
			OFFSET 0.0119 0.2289 -0.1181
			CHANNELS 3 Zrotation Xrotation Yrotation
			JOINT LeftElbow
			{
				OFFSET 0.00 -0.1475 0.00
				CHANNELS 2 Zrotation Yrotation
				JOINT LeftWrist
				{
					OFFSET 0.00 -0.1605 0.00
					CHANNELS 2 Zrotation Xrotation
					End Site
					{
						OFFSET 0.0040 -0.1068 -0.0006
					}
				}
			}
		}
	}
	JOINT RightHip
	{
		OFFSET 0.0316 -0.0424 0.0458
		CHANNELS 3 Zrotation Xrotation Yrotation
		JOINT RightKnee
		{
			OFFSET 0.00 -0.2438 0.00
			CHANNELS 1 Zrotation
			JOINT RightAnkle
			{
				OFFSET 0.00 -0.2449 0.00
				CHANNELS 3 Zrotation Xrotation Yrotation
				End Site
				{
					OFFSET 0.1237 -0.0542 0.0051
				}
			}
		}
	}
	JOINT LeftHip
	{
		OFFSET 0.0316 -0.0424 -0.0458
		CHANNELS 3 Zrotation Xrotation Yrotation
		JOINT LeftKnee
		{
			OFFSET 0.00 -0.2438 0.00
			CHANNELS 1 Zrotation
			JOINT LeftAnkle
			{
				OFFSET 0.00 -0.2449 0.00
				CHANNELS 3 Zrotation Xrotation Yrotation
				End Site
				{
					OFFSET 0.1237 -0.0542 -0.0051
				}
			}
		}
	}
}
MOTION
Frames: 31
Frame Time: 0.02
0.25439 0.5003 0.00741 178.64536 0 -3.51175 -52.02065 3.74606 4.11559 4.25303 5.01558 -1.01271 26.69193 -30.95136 25.19272 77.92799 112.97137 -37.78415 -6.93764 14.33347 23.33076 -17.02376 80.13285 -106.38189 -35.11835 6.09366 38.61521 3.42355 -1.0779 -51.20872 5.94134 -2.95885 -3.24967 40.37044 7.28955 -1.53625 -54.20779 11.49575 -2.7822 -5.82164
0.24973 0.50602 0.00583 178.8101 0 -3.42559 -50.85652 3.9367 3.95457 3.84015 5.20709 -1.04069 28.04977 -31.04427 26.00943 80.0794 114.58383 -39.58586 -7.0659 15.33816 23.02432 -18.03929 81.73784 -106.40532 -35.57134 6.07236 37.08771 3.4796 -0.99774 -49.3505 5.35845 -2.91935 -3.44651 38.76204 7.34891 -1.36556 -52.13334 10.92863 -2.62037 -5.95849
0.24482 0.51154 0.00415 178.96819 0 -3.32054 -49.48441 4.12497 3.75816 3.2995 5.40441 -1.04742 29.7591 -31.11039 27.02545 81.65146 116.14735 -41.27863 -7.20054 16.58142 22.70671 -19.14981 83.4017 -106.36056 -36.18541 6.03548 35.56169 3.53751 -0.89447 -47.50377 4.77047 -2.87434 -3.6491 37.12691 7.40323 -1.18405 -50.02917 10.34708 -2.47616 -6.09945
0.24 0.51712 0.00251 179.12933 0 -3.22619 -48.19114 4.31745 3.57758 2.80691 5.59296 -1.06884 31.31837 -31.16965 27.95686 83.41917 117.71391 -42.94337 -7.33531 17.74176 22.38956 -20.21802 84.99765 -106.34524 -36.71269 6.00592 34.03395 3.59583 -0.80739 -45.65312 4.18732 -2.8334 -3.84719 35.5041 7.46093 -1.01134 -47.94155 9.77477 -2.32438 -6.23577
0.23529 0.52282 0.00089 179.29192 0 -3.12252 -46.9571 4.4983 3.40033 2.35756 5.8089 -1.07174 32.84603 -31.30955 28.86807 85.46781 119.38205 -44.946 -7.46025 18.79739 22.0914 -21.28484 86.77202 -106.34158 -37.297 5.97591 32.5097 3.64903 -0.69576 -43.79527 3.59151 -2.78594 -4.05514 33.87936 7.51352 -0.82241 -45.83803 9.18895 -2.17077 -6.38432
0.23029 0.52823 -0.0008 179.44867 0 -3.03391 -45.55221 4.70185 3.20484 1.78417 5.9679 -1.10497 34.51732 -31.27573 29.86409 86.79914 120.80903 -46.21186 -7.60452 20.12715 21.7522 -22.37513 88.18665 -106.28898 -37.79799 5.94225 30.9797 3.71342 -0.62975 -41.95718 3.0225 -2.75047 -4.24258 32.25355 7.57596 -0.66419 -43.76346 8.62939 -2.02543 -6.50803
0.22452 0.53293 -0.00263 179.59866 0 -2.99159 -43.73603 4.97275 2.9932 0.93979 5.97677 -1.25455 36.52407 -30.76085 31.07807 86.24924 121.70742 -45.51012 -7.81947 22.14691 21.29112 -23.52018 88.60045 -106.19949 -38.06633 5.91077 29.42383 3.80651 -0.69768 -40.15462 2.51856 -2.75263 -4.37978 30.62195 7.66393 -0.59902 -41.75541 8.1371 -1.8953 -6.56345
0.21845 0.53734 -0.00452 179.74138 0 -2.96505 -41.75477 5.26555 2.76008 -0.03179 5.92647 -1.4307 38.65646 -30.07416 32.36371 85.00782 122.34115 -44.06428 -8.04999 24.43363 20.79178 -24.68243 88.65083 -106.04922 -38.23959 5.87469 27.8642 3.91107 -0.81169 -38.37504 2.04401 -2.76658 -4.49471 28.99221 7.76241 -0.56432 -39.78185 7.67363 -1.77345 -6.59323
0.21251 0.54183 -0.00639 179.88234 0 -2.93137 -39.84347 5.5456 2.51956 -0.9716 5.89756 -1.57613 40.71557 -29.47013 33.59549 84.10769 123.01125 -42.92905 -8.26077 26.60549 20.31641 -25.82876 88.85914 -105.87233 -38.43187 5.83507 26.31226 4.01152 -0.9036 -36.59509 1.56263 -2.77292 -4.61433 27.36754 7.85815 -0.51177 -37.80578 7.20279 -1.64998 -6.63407
0.20659 0.54651 -0.00825 180.04475 0 -2.89715 -37.9447 5.83779 2.34862 -1.80744 5.89206 -1.7977 42.86022 -28.8426 34.92604 83.06329 124.02982 -41.89781 -8.52507 28.76574 19.81017 -27.01493 89.08953 -105.91783 -38.72899 5.81828 24.73398 4.10748 -1.00086 -34.77126 1.05281 -2.78814 -4.75633 25.7161 7.94567 -0.47487 -35.77172 6.70692 -1.51817 -6.67832
0.20057 0.55074 -0.01012 180.16048 0 -2.86775 -35.9852 6.10946 2.03016 -2.88657 5.82374 -1.86958 44.84589 -28.22762 36.06293 82.17518 124.26561 -40.48551 -8.68175 31.00131 19.36269 -28.11806 89.20012 -105.49187 -38.78666 5.75358 23.21105 4.21539 -1.09659 -33.04634 0.61015 -2.78827 -4.84732 24.12227 8.0522 -0.41383 -33.86875 6.27063 -1.40537 -6.70837
0.1943 0.55388 -0.01201 180.15186 0 -2.85054 -33.88445 6.32281 1.2923 -4.62111 5.59581 -1.50179 46.41186 -27.65471 36.66649 81.78371 122.3587 -38.10963 -8.5351 33.45551 19.05778 -29.01097 88.95511 -103.73366 -38.17501 5.55318 21.83029 4.35444 -1.19072 -31.57037 0.33841 -2.73952 -4.79451 22.67894 8.21444 -0.26924 -32.30577 5.9887 -1.34383 -6.71364
0.18794 0.55657 -0.0139 180.09591 0 -2.83724 -31.73248 6.51405 0.41029 -6.59242 5.30691 -0.98624 47.8026 -27.10692 37.06821 81.59566 119.68218 -35.39387 -8.28001 35.96014 18.81885 -29.81426 88.62339 -101.51197 -37.33091 5.30569 20.50777 4.50495 -1.27897 -30.19676 0.13467 -2.67604 -4.69278 21.29562 8.39444 -0.10089 -30.87679 5.76646 -1.30089 -6.70406
0.18163 0.55944 -0.01578 180.06002 0 -2.82041 -29.61353 6.71304 -0.39439 -8.44541 5.04618 -0.55144 49.23869 -26.57055 37.54879 81.38585 117.38801 -32.89553 -8.07602 38.39159 18.56878 -30.64364 88.40511 -99.53239 -36.61278 5.0828 19.16579 4.64959 -1.36128 -28.78811 -0.09539 -2.62219 -4.61877 19.88974 8.56247 0.05006 -29.39475 5.51897 -1.24884 -6.69578
0.17527 0.56243 -0.01769 180.0305 0 -2.81144 -27.44541 6.92262 -1.25037 -10.34937 4.78099 -0.06014 50.82326 -25.93196 38.08601 80.85356 114.94589 -30.10546 -7.86486 41.04778 18.23766 -31.53808 87.86003 -97.4174 -35.80485 4.84613 17.79295 4.79741 -1.48267 -27.33091 -0.34389 -2.55633 -4.52038 18.4622 8.74712 0.22688 -27.8784 5.26438 -1.19989 -6.7092
0.169 0.56505 -0.01954 179.97592 0 -2.78694 -25.37238 7.10446 -2.03267 -12.20024 4.51196 0.34892 52.05636 -25.51423 38.45677 81.04977 112.63398 -27.85189 -7.64276 43.24049 18.0917 -32.27224 87.98178 -95.47562 -35.13088 4.62715 16.4997 4.94121 -1.51923 -25.99999 -0.5381 -2.51184 -4.462 17.09628 8.90148 0.35707 -26.46793 5.03859 -1.14873 -6.67475
0.16297 0.56679 -0.02123 179.86929 0 -2.71767 -23.55352 7.21613 -2.58238 -13.85811 4.24253 0.49477 52.3513 -25.70315 38.41299 83.21687 110.85925 -27.16865 -7.41614 44.17227 18.43933 -32.6134 89.94984 -94.12354 -34.87658 4.46779 15.40024 5.07058 -1.33537 -24.98327 -0.59981 -2.53001 -4.52146 15.86738 8.96575 0.34242 -25.29237 4.87596 -1.08773 -6.50746
0.15707 0.56817 -0.02285 179.73809 0 -2.63272 -21.83738 7.30028 -3.05143 -15.45128 3.97261 0.55292 52.30006 -26.11364 38.20916 86.11134 109.24528 -27.04005 -7.18232 44.62895 18.97127 -32.79128 92.59587 -92.96337 -34.76717 4.32811 14.38135 5.19546 -1.06391 -24.09202 -0.60916 -2.57013 -4.62379 14.70248 8.99927 0.2821 -24.22408 4.74053 -1.02379 -6.29363
0.15115 0.56969 -0.0245 179.61448 0 -2.55553 -20.08817 7.39636 -3.55365 -17.06618 3.70622 0.65131 52.41327 -26.42183 38.0809 88.67124 107.56628 -26.65718 -6.95232 45.28094 19.42035 -33.02546 94.94526 -91.71575 -34.59618 4.17979 13.33293 5.32277 -0.82406 -23.1491 -0.64222 -2.60012 -4.70977 13.51954 9.04821 0.24953 -23.12156 4.59354 -0.96047 -6.10378
0.14504 0.57128 -0.02617 179.50422 0 -2.47592 -18.2776 7.49444 -4.07682 -18.72298 3.42335 0.75308 52.48957 -26.73816 37.93328 91.25729 105.82709 -26.27009 -6.71636 46.02073 19.86888 -33.33135 97.24702 -90.44907 -34.39786 4.02814 12.2555 5.44917 -0.61822 -22.18611 -0.67356 -2.63025 -4.78113 12.28947 9.09169 0.18816 -21.95879 4.44493 -0.90034 -5.90059
0.13935 0.57264 -0.02778 179.36105 0 -2.39743 -16.62244 7.58169 -4.53384 -20.27261 3.17593 0.82522 52.5638 -27.0891 37.79113 93.95582 104.26059 -26.02953 -6.49239 46.46556 20.36022 -33.45122 99.80508 -89.27852 -34.29537 3.8892 11.25828 5.57586 -0.32137 -21.29472 -0.69654 -2.66548 -4.89333 11.17525 9.13901 0.1757 -20.94979 4.30579 -0.83325 -5.7154
0.13473 0.57349 -0.02923 179.13232 0 -2.32722 -15.35094 7.64937 -4.83954 -21.55265 3.02297 0.83484 52.70876 -27.48781 37.69969 96.8142 103.14451 -26.04864 -6.30485 46.1991 20.93536 -33.08994 102.9489 -88.28821 -34.41131 3.77658 10.45099 5.70781 0.20971 -20.55856 -0.71297 -2.70947 -5.11135 10.33857 9.20418 0.30797 -20.30177 4.18224 -0.74213 -5.58195
0.13054 0.57412 -0.03062 178.87175 0 -2.2585 -14.23681 7.70656 -5.07845 -22.72367 2.90659 0.81733 52.86594 -27.91216 37.62105 99.75401 102.1987 -26.1999 -6.12996 45.65459 21.54489 -32.54931 106.31885 -87.39768 -34.6221 3.67706 9.72374 5.83957 0.8281 -19.89187 -0.7225 -2.75782 -5.36827 9.62185 9.27426 0.49064 -19.81241 4.06763 -0.64499 -5.46982
0.1262 0.57484 -0.03203 178.62632 0 -2.18808 -13.06371 7.76624 -5.33974 -23.93676 2.77623 0.81291 53.02388 -28.32078 37.53971 102.63855 101.16974 -26.29816 -5.94871 45.2453 22.13137 -32.09563 109.55781 -86.48868 -34.79742 3.57431 8.96709 5.96913 1.40417 -19.20048 -0.73298 -2.80431 -5.60566 8.86632 9.34211 0.65177 -19.27262 3.95135 -0.55425 -5.3544
0.12168 0.57559 -0.03345 178.37685 0 -2.12107 -11.83941 7.83444 -5.6324 -25.18022 2.63502 0.80232 53.14319 -28.75538 37.439 105.62833 100.16808 -26.38452 -5.76941 44.78102 22.75575 -31.61167 112.94229 -85.47186 -34.94452 3.46062 8.18314 6.10807 1.99616 -18.48419 -0.75054 -2.85134 -5.85356 8.04315 9.40874 0.80777 -18.63983 3.82637 -0.44822 -5.21122
0.11763 0.57622 -0.03484 178.12896 0 -2.04795 -10.76002 7.88295 -5.84435 -26.33419 2.52466 0.79923 53.35013 -29.13782 37.38444 108.40544 99.1507 -26.52143 -5.58953 44.37274 23.30685 -31.1523 116.06509 -84.7018 -35.17217 3.37269 7.4749 6.22762 2.57243 -17.83501 -0.75274 -2.89763 -6.08669 7.39305 9.47967 0.98424 -18.24366 3.72076 -0.37227 -5.13044
0.11472 0.57656 -0.03616 177.89049 0 -1.95397 -10.02334 7.87811 -5.85446 -27.27761 2.49437 0.82383 53.80051 -29.37933 37.44972 110.59882 98.02627 -26.74972 -5.4022 44.17929 23.64618 -30.7894 118.43443 -84.58419 -35.59105 3.35211 6.94839 6.29245 3.10124 -17.35056 -0.7117 -2.94395 -6.28271 7.1533 9.55952 1.22859 -18.40554 3.67017 -0.38412 -5.22601
0.11227 0.57678 -0.03744 177.65565 0 -1.85457 -9.43031 7.85424 -5.78517 -28.13332 2.49311 0.85721 54.33975 -29.56451 37.56264 112.56678 96.88392 -27.02423 -5.21451 44.05646 23.90941 -30.4617 120.52341 -84.71354 -36.08967 3.35725 6.49654 6.33798 3.60713 -16.93155 -0.65607 -2.9887 -6.45981 7.09089 9.64381 1.48738 -18.81053 3.63765 -0.42575 -5.38195
0.10965 0.57705 -0.03875 177.42066 0 -1.76007 -8.78309 7.84025 -5.74955 -29.02287 2.47614 0.88686 54.83696 -29.76833 37.65758 114.61952 95.76299 -27.28556 -5.02876 43.90777 24.20773 -30.12803 122.72289 -84.72917 -36.55484 3.35059 6.01499 6.39322 4.11218 -16.48391 -0.60923 -3.032 -6.63676 6.9714 9.72768 1.72455 -19.14019 3.59461 -0.45171 -5.50463
0.10689 0.57734 -0.04004 177.17693 0 -1.6552 -8.0936 7.8207 -5.72173 -29.93351 2.47127 0.91466 55.34071 -30.00297 37.73753 116.75225 94.59045 -27.52001 -4.8356 43.71935 24.50697 -29.74331 125.0072 -84.74592 -37.00687 3.34392 5.5177 6.44463 4.66946 -16.03293 -0.55353 -3.08458 -6.8522 6.75485 9.80585 2.02795 -19.32525 3.56275 -0.48686 -5.65339
0.10453 0.57756 -0.04134 176.95428 0 -1.57074 -7.52545 7.80834 -5.65968 -30.78144 2.44737 0.94844 55.85261 -30.15917 37.85967 118.66102 93.52091 -27.81814 -4.65805 43.63841 24.78358 -29.47862 127.0388 -84.82864 -37.50994 3.34443 5.07078 6.49927 5.10934 -15.60497 -0.51227 -3.11741 -6.98223 6.78355 9.89576 2.19501 -19.86939 3.5104 -0.50954 -5.76093
